<svg width="1080" height="1920" viewBox="0 0 1080 1920" fill="none" xmlns="http://www.w3.org/2000/svg">
  <!-- Left and right black bars -->
  <rect x="0" y="0" width="100" height="1920" fill="#111"/>
  <rect x="980" y="0" width="100" height="1920" fill="#111"/>
  
  <!-- Left sprocket holes -->
  <g fill="white">
    <!-- Quick repeats for visual -->
    <rect x="25" y="50" width="50" height="40" rx="5" />
    <rect x="25" y="150" width="50" height="40" rx="5" />
    <rect x="25" y="250" width="50" height="40" rx="5" />
    <rect x="25" y="350" width="50" height="40" rx="5" />
    <rect x="25" y="450" width="50" height="40" rx="5" />
    <rect x="25" y="550" width="50" height="40" rx="5" />
    <rect x="25" y="650" width="50" height="40" rx="5" />
    <rect x="25" y="750" width="50" height="40" rx="5" />
    <rect x="25" y="850" width="50" height="40" rx="5" />
    <rect x="25" y="950" width="50" height="40" rx="5" />
    <rect x="25" y="1050" width="50" height="40" rx="5" />
    <rect x="25" y="1150" width="50" height="40" rx="5" />
    <rect x="25" y="1250" width="50" height="40" rx="5" />
    <rect x="25" y="1350" width="50" height="40" rx="5" />
    <rect x="25" y="1450" width="50" height="40" rx="5" />
    <rect x="25" y="1550" width="50" height="40" rx="5" />
    <rect x="25" y="1650" width="50" height="40" rx="5" />
    <rect x="25" y="1750" width="50" height="40" rx="5" />
    <rect x="25" y="1850" width="50" height="40" rx="5" />
  </g>
  <!-- Right sprocket holes -->
  <g fill="white">
    <rect x="1005" y="50" width="50" height="40" rx="5" />
    <rect x="1005" y="150" width="50" height="40" rx="5" />
    <rect x="1005" y="250" width="50" height="40" rx="5" />
    <rect x="1005" y="350" width="50" height="40" rx="5" />
    <rect x="1005" y="450" width="50" height="40" rx="5" />
    <rect x="1005" y="550" width="50" height="40" rx="5" />
    <rect x="1005" y="650" width="50" height="40" rx="5" />
    <rect x="1005" y="750" width="50" height="40" rx="5" />
    <rect x="1005" y="850" width="50" height="40" rx="5" />
    <rect x="1005" y="950" width="50" height="40" rx="5" />
    <rect x="1005" y="1050" width="50" height="40" rx="5" />
    <rect x="1005" y="1150" width="50" height="40" rx="5" />
    <rect x="1005" y="1250" width="50" height="40" rx="5" />
    <rect x="1005" y="1350" width="50" height="40" rx="5" />
    <rect x="1005" y="1450" width="50" height="40" rx="5" />
    <rect x="1005" y="1550" width="50" height="40" rx="5" />
    <rect x="1005" y="1650" width="50" height="40" rx="5" />
    <rect x="1005" y="1750" width="50" height="40" rx="5" />
    <rect x="1005" y="1850" width="50" height="40" rx="5" />
  </g>
</svg>
